# Blender v2.79 (sub 0) OBJ File: 'cone.blend'
# www.blender.org
mtllib cone.mtl
o Cone
v 0.000000 -0.500000 -0.500000
v 0.097545 -0.500000 -0.490393
v 0.191342 -0.500000 -0.461940
v 0.277785 -0.500000 -0.415735
v 0.353553 -0.500000 -0.353553
v 0.415735 -0.500000 -0.277785
v 0.461940 -0.500000 -0.191342
v 0.490393 -0.500000 -0.097545
v 0.500000 -0.500000 -0.000000
v 0.490393 -0.500000 0.097545
v 0.461940 -0.500000 0.191342
v 0.415735 -0.500000 0.277785
v 0.353553 -0.500000 0.353553
v 0.277785 -0.500000 0.415735
v 0.191342 -0.500000 0.461940
v 0.097545 -0.500000 0.490393
v -0.000000 -0.500000 0.500000
v -0.097545 -0.500000 0.490393
v -0.191342 -0.500000 0.461940
v -0.277785 -0.500000 0.415735
v -0.353554 -0.500000 0.353553
v -0.415735 -0.500000 0.277785
v -0.461940 -0.500000 0.191341
v 0.000000 0.500000 0.000000
v -0.490393 -0.500000 0.097545
v -0.500000 -0.500000 -0.000000
v -0.490393 -0.500000 -0.097546
v -0.461940 -0.500000 -0.191342
v -0.415734 -0.500000 -0.277786
v -0.353553 -0.500000 -0.353554
v -0.277785 -0.500000 -0.415735
v -0.191341 -0.500000 -0.461940
v -0.097544 -0.500000 -0.490393
vt 0.000000 0.000000
vt 1.000000 0.000000
vt 1.000000 1.000000
vt 0.000000 0.000000
vt 1.000000 1.000000
vt 0.000000 0.000000
vt 1.000000 1.000000
vt 0.000000 0.000000
vt 1.000000 1.000000
vt 0.000000 0.000000
vt 1.000000 1.000000
vt 0.000000 0.000000
vt 1.000000 1.000000
vt 0.000000 0.000000
vt 1.000000 1.000000
vt 0.000000 0.000000
vt 1.000000 1.000000
vt 0.000000 0.000000
vt 1.000000 1.000000
vt 0.000000 0.000000
vt 1.000000 1.000000
vt 0.000000 0.000000
vt 1.000000 1.000000
vt 0.000000 0.000000
vt 1.000000 1.000000
vt 0.000000 0.000000
vt 1.000000 1.000000
vt 0.000000 0.000000
vt 1.000000 1.000000
vt 0.000000 0.000000
vt 1.000000 1.000000
vt 0.000000 0.000000
vt 1.000000 1.000000
vt 0.000000 0.000000
vt 1.000000 1.000000
vt 0.000000 0.000000
vt 1.000000 1.000000
vt 0.000000 0.000000
vt 1.000000 1.000000
vt 0.000000 0.000000
vt 1.000000 1.000000
vt 0.000000 0.000000
vt 1.000000 1.000000
vt 0.000000 0.000000
vt 1.000000 1.000000
vt 0.000000 0.000000
vt 1.000000 1.000000
vt 0.000000 0.000000
vt 1.000000 1.000000
vt 0.000000 0.000000
vt 1.000000 1.000000
vt 0.000000 0.000000
vt 1.000000 1.000000
vt 0.000000 0.000000
vt 1.000000 1.000000
vt 0.000000 0.000000
vt 1.000000 1.000000
vt 0.000000 0.000000
vt 1.000000 1.000000
vt 0.000000 0.000000
vt 1.000000 1.000000
vt 0.000000 0.000000
vt 1.000000 1.000000
vt 0.000000 0.000000
vt 1.000000 1.000000
vt 1.000000 0.000000
vt 1.000000 0.000000
vt 1.000000 0.000000
vt 1.000000 0.000000
vt 1.000000 0.000000
vt 1.000000 0.000000
vt 1.000000 0.000000
vt 1.000000 0.000000
vt 1.000000 0.000000
vt 1.000000 0.000000
vt 1.000000 0.000000
vt 1.000000 0.000000
vt 1.000000 0.000000
vt 1.000000 0.000000
vt 1.000000 0.000000
vt 1.000000 0.000000
vt 1.000000 0.000000
vt 1.000000 0.000000
vt 1.000000 0.000000
vt 1.000000 0.000000
vt 1.000000 0.000000
vt 1.000000 0.000000
vt 1.000000 0.000000
vt 1.000000 0.000000
vt 1.000000 0.000000
vt 1.000000 0.000000
vt 1.000000 0.000000
vt 1.000000 0.000000
vn 0.0878 0.4455 -0.8910
vn 0.2599 0.4455 -0.8567
vn 0.4220 0.4455 -0.7896
vn 0.5680 0.4455 -0.6921
vn 0.6921 0.4455 -0.5680
vn 0.7896 0.4455 -0.4220
vn 0.8567 0.4455 -0.2599
vn 0.8910 0.4455 -0.0878
vn 0.8910 0.4455 0.0878
vn 0.8567 0.4455 0.2599
vn 0.7896 0.4455 0.4220
vn 0.6921 0.4455 0.5680
vn 0.5680 0.4455 0.6921
vn 0.4220 0.4455 0.7896
vn 0.2599 0.4455 0.8567
vn 0.0878 0.4455 0.8910
vn -0.0878 0.4455 0.8910
vn -0.2599 0.4455 0.8567
vn -0.4220 0.4455 0.7896
vn -0.5680 0.4455 0.6921
vn -0.6921 0.4455 0.5680
vn -0.7896 0.4455 0.4220
vn -0.8567 0.4455 0.2599
vn -0.8910 0.4455 0.0878
vn -0.8910 0.4455 -0.0878
vn -0.8567 0.4455 -0.2599
vn -0.7896 0.4455 -0.4220
vn -0.6921 0.4455 -0.5680
vn -0.5680 0.4455 -0.6921
vn -0.4220 0.4455 -0.7896
vn -0.2599 0.4455 -0.8567
vn -0.0878 0.4455 -0.8910
vn 0.0000 -1.0000 0.0000
usemtl Material.005
s off
f 1/1/1 24/2/1 2/3/1
f 2/4/2 24/2/2 3/5/2
f 3/6/3 24/2/3 4/7/3
f 4/8/4 24/2/4 5/9/4
f 5/10/5 24/2/5 6/11/5
f 6/12/6 24/2/6 7/13/6
f 7/14/7 24/2/7 8/15/7
f 8/16/8 24/2/8 9/17/8
f 9/18/9 24/2/9 10/19/9
f 10/20/10 24/2/10 11/21/10
f 11/22/11 24/2/11 12/23/11
f 12/24/12 24/2/12 13/25/12
f 13/26/13 24/2/13 14/27/13
f 14/28/14 24/2/14 15/29/14
f 15/30/15 24/2/15 16/31/15
f 16/32/16 24/2/16 17/33/16
f 17/34/17 24/2/17 18/35/17
f 18/36/18 24/2/18 19/37/18
f 19/38/19 24/2/19 20/39/19
f 20/40/20 24/2/20 21/41/20
f 21/42/21 24/2/21 22/43/21
f 22/44/22 24/2/22 23/45/22
f 23/46/23 24/2/23 25/47/23
f 25/48/24 24/2/24 26/49/24
f 26/50/25 24/2/25 27/51/25
f 27/52/26 24/2/26 28/53/26
f 28/54/27 24/2/27 29/55/27
f 29/56/28 24/2/28 30/57/28
f 30/58/29 24/2/29 31/59/29
f 31/60/30 24/2/30 32/61/30
f 32/62/31 24/2/31 33/63/31
f 33/64/32 24/2/32 1/65/32
f 8/16/33 16/66/33 25/47/33
f 33/64/33 1/67/33 2/3/33
f 2/4/33 3/68/33 4/7/33
f 4/8/33 5/69/33 6/11/33
f 6/12/33 7/70/33 4/7/33
f 7/14/33 8/71/33 4/7/33
f 8/16/33 9/72/33 10/19/33
f 10/20/33 11/73/33 8/15/33
f 11/22/33 12/74/33 8/15/33
f 12/24/33 13/75/33 16/31/33
f 13/26/33 14/76/33 16/31/33
f 14/28/33 15/77/33 16/31/33
f 16/32/33 17/78/33 18/35/33
f 18/36/33 19/79/33 20/39/33
f 20/40/33 21/80/33 22/43/33
f 22/44/33 23/81/33 25/47/33
f 25/48/33 26/82/33 27/51/33
f 27/52/33 28/83/33 29/55/33
f 29/56/33 30/84/33 33/63/33
f 30/58/33 31/85/33 33/63/33
f 31/60/33 32/86/33 33/63/33
f 33/64/33 2/87/33 4/7/33
f 16/32/33 18/88/33 25/47/33
f 18/36/33 20/89/33 25/47/33
f 20/40/33 22/90/33 25/47/33
f 25/48/33 27/91/33 33/63/33
f 27/52/33 29/92/33 33/63/33
f 33/64/33 4/93/33 8/15/33
f 8/16/33 12/74/33 16/31/33
f 33/64/33 8/71/33 25/47/33
