# Blender v2.79 (sub 0) OBJ File: 'sphere.blend'
# www.blender.org
mtllib sphere.mtl
o Mball.001_Mesh.001
v 0.410668 0.828769 -0.181440
v 0.410668 0.740829 -0.269380
v 0.498608 0.740829 -0.181440
v 0.410668 0.540829 -0.361834
v 0.591062 0.540829 -0.181440
v 0.410668 0.340829 -0.361834
v 0.591062 0.340829 -0.181440
v 0.610668 0.340829 -0.146538
v 0.610668 0.540829 -0.146538
v 0.668223 0.340829 0.018560
v 0.668223 0.540829 0.018560
v 0.610668 0.175731 0.018560
v 0.610668 0.175731 0.218560
v 0.668223 0.340829 0.218560
v 0.610668 0.340829 0.383658
v 0.610668 0.540829 0.383658
v 0.668223 0.540829 0.218560
v 0.610668 0.705927 0.218560
v 0.610668 0.705927 0.018560
v 0.591062 0.740829 0.218560
v 0.591062 0.740829 0.018560
v 0.410668 0.921223 0.218560
v 0.410668 0.921223 0.018560
v 0.375766 0.940829 0.218560
v 0.375766 0.940829 0.018560
v 0.210668 0.998384 0.218560
v 0.210668 0.998384 0.018560
v 0.210668 0.940829 0.383658
v 0.010668 0.998384 0.218560
v 0.010668 0.940829 0.383658
v 0.010668 0.921223 0.418560
v 0.210668 0.921223 0.418560
v 0.210668 0.740829 0.598954
v 0.010668 0.740829 0.598954
v 0.010668 0.705927 0.618560
v 0.210668 0.705927 0.618560
v 0.210668 0.540829 0.676115
v 0.010668 0.540829 0.676115
v 0.010668 0.340829 0.676115
v 0.210668 0.340829 0.676115
v 0.010668 0.175731 0.618560
v 0.210668 0.175731 0.618560
v 0.210668 0.140829 0.598954
v 0.010668 0.140829 0.598954
v 0.010668 -0.039565 0.418560
v 0.210668 -0.039565 0.418560
v 0.210668 -0.059171 0.383658
v 0.010668 -0.059171 0.383658
v 0.010668 -0.116726 0.218560
v 0.210668 -0.116726 0.218560
v 0.210668 -0.116726 0.018560
v 0.010668 -0.116726 0.018560
v 0.210668 -0.059171 -0.146538
v 0.010668 -0.059171 -0.146538
v 0.010668 -0.039565 -0.181440
v 0.210668 -0.039565 -0.181440
v 0.210668 0.140829 -0.361834
v 0.010668 0.140829 -0.361834
v 0.010668 0.175731 -0.381440
v 0.210668 0.175731 -0.381440
v 0.210668 0.340829 -0.438995
v 0.010668 0.340829 -0.438995
v 0.210668 0.540829 -0.438995
v 0.010668 0.540829 -0.438995
v 0.010668 0.705927 -0.381440
v 0.210668 0.705927 -0.381440
v 0.210668 0.740829 -0.361834
v 0.010668 0.740829 -0.361834
v 0.010668 0.921223 -0.181440
v 0.210668 0.921223 -0.181440
v 0.210668 0.940829 -0.146538
v 0.010668 0.940829 -0.146538
v 0.010668 0.998384 0.018560
v -0.154430 0.940829 0.018560
v -0.154430 0.940829 0.218560
v -0.189332 0.921223 0.218560
v -0.189332 0.921223 0.018560
v -0.369726 0.740829 0.218560
v -0.369726 0.740829 0.018560
v -0.389332 0.705927 0.218560
v -0.389332 0.705927 0.018560
v -0.389332 0.540829 -0.146538
v -0.369726 0.540829 -0.181440
v -0.277272 0.740829 -0.181440
v -0.389332 0.340829 -0.146538
v -0.369726 0.340829 -0.181440
v -0.389332 0.175731 0.018560
v -0.369726 0.140829 0.018560
v -0.277272 0.140829 -0.181440
v -0.189332 0.140829 -0.269380
v -0.189332 0.340829 -0.361834
v -0.189332 0.052889 -0.181440
v -0.389332 0.175731 0.218560
v -0.369726 0.140829 0.218560
v -0.189332 -0.039565 0.218560
v -0.189332 -0.039565 0.018560
v -0.189332 0.052889 0.418560
v -0.277272 0.140829 0.418560
v -0.154430 -0.059171 0.218560
v -0.154430 -0.059171 0.018560
v -0.389332 0.340829 0.383658
v -0.369726 0.340829 0.418560
v -0.389332 0.540829 0.383658
v -0.369726 0.540829 0.418560
v -0.189332 0.340829 0.598954
v -0.189332 0.540829 0.598954
v -0.154430 0.540829 0.618560
v -0.154430 0.340829 0.618560
v -0.446887 0.340829 0.218560
v -0.446887 0.540829 0.218560
v -0.446887 0.340829 0.018560
v -0.446887 0.540829 0.018560
v -0.189332 0.140829 0.506500
v -0.189332 0.540829 -0.361834
v -0.154430 0.340829 -0.381440
v -0.154430 0.540829 -0.381440
v -0.189332 0.740829 -0.269380
v -0.189332 0.828769 -0.181440
v -0.277272 0.740829 0.418560
v -0.189332 0.828769 0.418560
v -0.189332 0.740829 0.506500
v 0.375766 0.340829 -0.381440
v 0.375766 0.540829 -0.381440
v 0.410668 0.052889 -0.181440
v 0.410668 0.140829 -0.269380
v 0.498608 0.140829 -0.181440
v 0.410668 -0.039565 0.018560
v 0.591062 0.140829 0.018560
v 0.410668 -0.039565 0.218560
v 0.591062 0.140829 0.218560
v 0.410668 0.052889 0.418560
v 0.498608 0.140829 0.418560
v 0.410668 0.140829 0.506500
v 0.410668 0.340829 0.598954
v 0.591062 0.340829 0.418560
v 0.410668 0.540829 0.598954
v 0.591062 0.540829 0.418560
v 0.410668 0.740829 0.506500
v 0.498608 0.740829 0.418560
v 0.410668 0.828769 0.418560
v 0.375766 0.340829 0.618560
v 0.375766 0.540829 0.618560
v 0.375766 -0.059171 0.018560
v 0.375766 -0.059171 0.218560
vt 0.000000 0.000000
vt 1.000000 0.000000
vt 1.000000 1.000000
vt 1.000000 0.000000
vt 1.000000 1.000000
vt 0.000000 0.000000
vt 1.000000 0.000000
vt 1.000000 1.000000
vt 1.000000 0.000000
vt 1.000000 1.000000
vt 0.000000 0.000000
vt 1.000000 1.000000
vt 0.000000 0.000000
vt 1.000000 0.000000
vt 1.000000 1.000000
vt 0.000000 0.000000
vt 1.000000 0.000000
vt 0.000000 0.000000
vt 1.000000 0.000000
vt 1.000000 1.000000
vt 0.000000 0.000000
vt 1.000000 1.000000
vt 0.000000 0.000000
vt 1.000000 0.000000
vt 1.000000 1.000000
vt 1.000000 0.000000
vt 1.000000 1.000000
vt 0.000000 0.000000
vt 1.000000 1.000000
vt 1.000000 0.000000
vt 1.000000 1.000000
vt 0.000000 0.000000
vt 1.000000 1.000000
vt 1.000000 0.000000
vt 1.000000 1.000000
vt 0.000000 0.000000
vt 1.000000 0.000000
vt 1.000000 1.000000
vt 1.000000 0.000000
vt 1.000000 1.000000
vt 1.000000 0.000000
vt 1.000000 1.000000
vt 0.000000 0.000000
vt 1.000000 1.000000
vt 1.000000 0.000000
vt 1.000000 1.000000
vt 0.000000 0.000000
vt 1.000000 1.000000
vt 1.000000 0.000000
vt 1.000000 1.000000
vt 0.000000 0.000000
vt 1.000000 0.000000
vt 1.000000 1.000000
vt 0.000000 0.000000
vt 1.000000 1.000000
vt 1.000000 0.000000
vt 1.000000 1.000000
vt 0.000000 0.000000
vt 1.000000 1.000000
vt 1.000000 0.000000
vt 1.000000 1.000000
vt 0.000000 0.000000
vt 1.000000 1.000000
vt 0.000000 0.000000
vt 1.000000 0.000000
vt 1.000000 1.000000
vt 1.000000 0.000000
vt 1.000000 1.000000
vt 0.000000 0.000000
vt 1.000000 1.000000
vt 1.000000 0.000000
vt 1.000000 1.000000
vt 0.000000 0.000000
vt 1.000000 1.000000
vt 0.000000 0.000000
vt 1.000000 0.000000
vt 1.000000 1.000000
vt 1.000000 0.000000
vt 1.000000 1.000000
vt 0.000000 0.000000
vt 1.000000 1.000000
vt 1.000000 0.000000
vt 1.000000 1.000000
vt 0.000000 0.000000
vt 1.000000 1.000000
vt 1.000000 0.000000
vt 1.000000 1.000000
vt 0.000000 0.000000
vt 1.000000 0.000000
vt 1.000000 1.000000
vt 0.000000 0.000000
vt 1.000000 0.000000
vt 1.000000 1.000000
vt 0.000000 0.000000
vt 1.000000 1.000000
vt 1.000000 0.000000
vt 1.000000 1.000000
vt 0.000000 0.000000
vt 1.000000 0.000000
vt 1.000000 1.000000
vt 1.000000 0.000000
vt 0.000000 0.000000
vt 1.000000 0.000000
vt 1.000000 1.000000
vt 0.000000 0.000000
vt 1.000000 0.000000
vt 1.000000 1.000000
vt 0.000000 0.000000
vt 1.000000 0.000000
vt 1.000000 1.000000
vt 0.000000 0.000000
vt 1.000000 0.000000
vt 1.000000 1.000000
vt 1.000000 1.000000
vt 0.000000 0.000000
vt 1.000000 0.000000
vt 1.000000 0.000000
vt 1.000000 1.000000
vt 0.000000 0.000000
vt 1.000000 0.000000
vt 1.000000 1.000000
vt 0.000000 0.000000
vt 1.000000 1.000000
vt 0.000000 0.000000
vt 1.000000 0.000000
vt 1.000000 1.000000
vt 1.000000 0.000000
vt 0.000000 0.000000
vt 1.000000 1.000000
vt 1.000000 0.000000
vt 1.000000 1.000000
vt 0.000000 0.000000
vt 1.000000 1.000000
vt 0.000000 0.000000
vt 1.000000 1.000000
vt 1.000000 0.000000
vt 1.000000 1.000000
vt 0.000000 0.000000
vt 1.000000 0.000000
vt 1.000000 1.000000
vt 0.000000 0.000000
vt 1.000000 0.000000
vt 1.000000 1.000000
vt 0.000000 0.000000
vt 0.000000 0.000000
vt 1.000000 1.000000
vt 1.000000 0.000000
vt 0.000000 0.000000
vt 1.000000 1.000000
vt 1.000000 1.000000
vt 1.000000 0.000000
vt 1.000000 1.000000
vt 0.000000 0.000000
vt 1.000000 1.000000
vt 0.000000 0.000000
vt 1.000000 1.000000
vt 0.000000 0.000000
vt 1.000000 0.000000
vt 1.000000 0.000000
vt 0.000000 0.000000
vt 1.000000 0.000000
vt 1.000000 1.000000
vt 1.000000 0.000000
vt 1.000000 1.000000
vt 0.000000 0.000000
vt 1.000000 0.000000
vt 1.000000 1.000000
vt 0.000000 0.000000
vt 1.000000 0.000000
vt 1.000000 1.000000
vt 1.000000 1.000000
vt 1.000000 0.000000
vt 0.000000 0.000000
vt 1.000000 1.000000
vt 0.000000 0.000000
vt 1.000000 0.000000
vt 1.000000 1.000000
vt 1.000000 0.000000
vt 1.000000 1.000000
vt 0.000000 0.000000
vt 1.000000 0.000000
vt 0.000000 0.000000
vt 1.000000 0.000000
vt 1.000000 1.000000
vt 0.000000 0.000000
vt 1.000000 0.000000
vt 1.000000 1.000000
vt 0.000000 0.000000
vt 1.000000 0.000000
vt 1.000000 1.000000
vt 0.000000 0.000000
vt 1.000000 1.000000
vt 0.000000 0.000000
vt 1.000000 0.000000
vt 1.000000 1.000000
vt 0.000000 0.000000
vt 1.000000 0.000000
vt 1.000000 1.000000
vt 0.000000 0.000000
vt 1.000000 0.000000
vt 1.000000 1.000000
vt 0.000000 0.000000
vt 1.000000 1.000000
vt 0.000000 0.000000
vt 1.000000 1.000000
vt 0.000000 0.000000
vt 1.000000 0.000000
vt 1.000000 1.000000
vt 0.000000 0.000000
vt 0.000000 0.000000
vt 1.000000 0.000000
vt 1.000000 1.000000
vt 0.000000 0.000000
vt 1.000000 0.000000
vt 1.000000 0.000000
vt 1.000000 1.000000
vt 1.000000 1.000000
vt 0.000000 0.000000
vt 1.000000 0.000000
vt 0.000000 0.000000
vt 1.000000 0.000000
vt 1.000000 1.000000
vt 1.000000 0.000000
vt 0.000000 0.000000
vt 1.000000 1.000000
vt 0.000000 0.000000
vt 1.000000 1.000000
vt 0.000000 0.000000
vt 1.000000 0.000000
vt 0.000000 0.000000
vt 1.000000 1.000000
vt 1.000000 1.000000
vt 0.000000 0.000000
vt 1.000000 0.000000
vt 0.000000 0.000000
vt 1.000000 0.000000
vt 1.000000 1.000000
vt 1.000000 0.000000
vt 1.000000 1.000000
vt 1.000000 0.000000
vt 0.000000 0.000000
vt 1.000000 0.000000
vt 1.000000 1.000000
vt 0.000000 0.000000
vt 1.000000 1.000000
vt 0.000000 0.000000
vt 1.000000 0.000000
vt 1.000000 1.000000
vt 0.000000 0.000000
vt 1.000000 0.000000
vt 1.000000 0.000000
vt 1.000000 1.000000
vt 1.000000 1.000000
vt 1.000000 0.000000
vt 1.000000 1.000000
vt 1.000000 1.000000
vt 1.000000 0.000000
vt 1.000000 1.000000
vt 0.000000 0.000000
vt 1.000000 0.000000
vt 0.000000 0.000000
vt 1.000000 0.000000
vt 0.000000 0.000000
vt 1.000000 0.000000
vt 1.000000 1.000000
vt 1.000000 0.000000
vt 1.000000 1.000000
vt 1.000000 0.000000
vt 0.000000 0.000000
vt 1.000000 0.000000
vt 1.000000 1.000000
vt 1.000000 0.000000
vt 0.000000 0.000000
vt 1.000000 0.000000
vt 1.000000 0.000000
vt 1.000000 0.000000
vt 1.000000 0.000000
vt 0.000000 0.000000
vt 1.000000 0.000000
vt 1.000000 0.000000
vt 0.000000 0.000000
vt 1.000000 1.000000
vt 0.000000 0.000000
vt 1.000000 0.000000
vt 1.000000 0.000000
vt 0.000000 0.000000
vt 1.000000 0.000000
vt 1.000000 1.000000
vt 0.000000 0.000000
vt 1.000000 0.000000
vt 0.000000 0.000000
vt 0.000000 0.000000
vt 1.000000 0.000000
vt 1.000000 0.000000
vt 0.000000 0.000000
vt 1.000000 0.000000
vt 1.000000 1.000000
vt 0.000000 0.000000
vt 1.000000 0.000000
vt 0.000000 0.000000
vt 1.000000 0.000000
vt 1.000000 1.000000
vt 1.000000 1.000000
vt 1.000000 0.000000
vt 1.000000 0.000000
vt 1.000000 1.000000
vt 1.000000 0.000000
vt 1.000000 1.000000
vt 1.000000 0.000000
vt 1.000000 0.000000
vt 1.000000 0.000000
vt 1.000000 0.000000
vt 1.000000 0.000000
vt 1.000000 0.000000
vt 1.000000 0.000000
vt 1.000000 0.000000
vt 1.000000 0.000000
vt 1.000000 0.000000
vt 1.000000 0.000000
vt 1.000000 1.000000
vt 1.000000 0.000000
vt 1.000000 0.000000
vt 1.000000 1.000000
vt 1.000000 0.000000
vt 1.000000 1.000000
vt 1.000000 0.000000
vt 1.000000 1.000000
vt 1.000000 0.000000
vt 1.000000 0.000000
vt 1.000000 0.000000
vt 1.000000 0.000000
vt 1.000000 1.000000
vt 1.000000 0.000000
vt 1.000000 0.000000
vt 1.000000 0.000000
vt 1.000000 0.000000
vt 1.000000 1.000000
vt 1.000000 1.000000
vt 1.000000 0.000000
vt 1.000000 0.000000
vt 1.000000 0.000000
vt 1.000000 0.000000
vt 1.000000 0.000000
vt 1.000000 0.000000
vt 1.000000 0.000000
vt 1.000000 1.000000
vt 1.000000 1.000000
vt 1.000000 0.000000
vt 1.000000 0.000000
vt 1.000000 0.000000
vt 1.000000 0.000000
vt 1.000000 0.000000
vn 0.7106 0.4971 -0.4978
vn 0.4986 0.4986 -0.7091
vn 0.4971 0.7106 -0.4978
vn 0.5867 0.1755 -0.7906
vn 0.7943 0.1867 -0.5781
vn 0.5781 -0.1867 -0.7943
vn 0.8927 -0.1841 -0.4112
vn 0.7906 -0.1755 -0.5867
vn 0.9733 0.1621 -0.1621
vn 0.8847 0.2058 -0.4182
vn 0.9733 -0.1621 -0.1621
vn 0.8927 -0.4112 -0.1841
vn 0.8927 -0.4106 0.1857
vn 0.9733 -0.1621 0.1621
vn 0.8847 -0.2058 0.4182
vn 0.9733 0.1621 0.1621
vn 0.8927 0.1841 0.4112
vn 0.8927 0.4112 0.1841
vn 0.7906 0.5867 -0.1755
vn 0.8927 0.4106 -0.1857
vn 0.5774 0.7945 0.1882
vn 0.7906 0.5867 0.1755
vn 0.4106 0.8927 -0.1857
vn 0.5867 0.7906 -0.1755
vn 0.1621 0.9733 0.1621
vn 0.4182 0.8847 0.2058
vn 0.2058 0.8847 0.4182
vn -0.1621 0.9733 0.1621
vn -0.1841 0.8927 0.4112
vn -0.1755 0.7906 0.5867
vn 0.1882 0.7945 0.5774
vn 0.1755 0.5867 0.7906
vn -0.1755 0.5867 0.7906
vn -0.1857 0.4106 0.8927
vn 0.1857 0.4106 0.8927
vn 0.1621 0.1621 0.9733
vn -0.1621 0.1621 0.9733
vn -0.1621 -0.1621 0.9733
vn 0.1621 -0.1621 0.9733
vn -0.1841 -0.4112 0.8927
vn 0.1841 -0.4112 0.8927
vn 0.1755 -0.5867 0.7906
vn -0.1755 -0.5867 0.7906
vn -0.1755 -0.7906 0.5867
vn 0.1867 -0.7943 0.5781
vn 0.2058 -0.8847 0.4182
vn -0.1841 -0.8927 0.4112
vn -0.1621 -0.9733 0.1621
vn 0.1621 -0.9733 0.1621
vn 0.1621 -0.9733 -0.1621
vn -0.1621 -0.9733 -0.1621
vn 0.2058 -0.8847 -0.4182
vn -0.2058 -0.8847 -0.4182
vn -0.1882 -0.7945 -0.5774
vn 0.1882 -0.7945 -0.5774
vn 0.1755 -0.5867 -0.7906
vn -0.1755 -0.5867 -0.7906
vn -0.1841 -0.4112 -0.8927
vn 0.1857 -0.4106 -0.8927
vn 0.1621 -0.1621 -0.9733
vn -0.1621 -0.1621 -0.9733
vn 0.1621 0.1621 -0.9733
vn -0.1621 0.1621 -0.9733
vn -0.2058 0.4182 -0.8847
vn 0.1841 0.4112 -0.8927
vn 0.1755 0.5867 -0.7906
vn -0.1882 0.5774 -0.7945
vn -0.1755 0.7906 -0.5867
vn 0.1867 0.7943 -0.5781
vn 0.2058 0.8847 -0.4182
vn -0.1857 0.8927 -0.4106
vn -0.1621 0.9733 -0.1621
vn 0.1621 0.9733 -0.1621
vn -0.4182 0.8847 -0.2058
vn -0.5867 0.7906 0.1755
vn -0.4112 0.8927 0.1841
vn -0.7906 0.5867 -0.1755
vn -0.5781 0.7943 -0.1867
vn -0.8927 0.4106 0.1857
vn -0.7906 0.5867 0.1755
vn -0.7091 0.4986 -0.4986
vn -0.8927 0.1841 -0.4112
vn -0.8927 0.4112 -0.1841
vn -0.7906 0.1755 -0.5867
vn -0.8847 -0.2058 -0.4182
vn -0.7106 -0.4971 -0.4978
vn -0.8927 -0.4106 -0.1857
vn -0.7943 -0.1867 -0.5781
vn -0.4986 -0.4986 -0.7091
vn -0.4960 -0.7127 -0.4960
vn -0.7906 -0.5867 -0.1755
vn -0.8927 -0.4112 0.1841
vn -0.5867 -0.7906 0.1755
vn -0.7906 -0.5867 0.1755
vn -0.4986 -0.7091 0.4986
vn -0.7091 -0.4986 0.4986
vn -0.4182 -0.8847 -0.2058
vn -0.5774 -0.7945 -0.1882
vn -0.8927 -0.1841 0.4112
vn -0.7943 0.1867 0.5781
vn -0.7906 -0.1755 0.5867
vn -0.5867 -0.1755 0.7906
vn -0.5781 0.1867 0.7943
vn -0.4182 0.2058 0.8847
vn -0.4112 -0.1841 0.8927
vn -0.9733 0.1621 0.1621
vn -0.8847 0.2058 0.4182
vn -0.9733 0.1621 -0.1621
vn -0.9733 -0.1621 0.1621
vn -0.4986 -0.4986 0.7091
vn -0.9733 -0.1621 -0.1621
vn -0.5867 -0.1755 -0.7906
vn -0.4182 0.2058 -0.8847
vn -0.5774 0.1882 -0.7945
vn -0.4960 0.4960 -0.7127
vn -0.4978 0.7106 -0.4971
vn -0.7106 0.4971 0.4978
vn -0.4986 0.7091 0.4986
vn -0.4978 0.4971 0.7106
vn 0.4112 0.1841 -0.8927
vn -0.4112 -0.1841 -0.8927
vn 0.4182 -0.2058 -0.8847
vn 0.4978 -0.4971 -0.7106
vn 0.7091 -0.4986 -0.4986
vn 0.4960 -0.7127 -0.4960
vn 0.5774 -0.7945 -0.1882
vn 0.7906 -0.5867 -0.1755
vn 0.5867 -0.7906 0.1755
vn 0.7906 -0.5867 0.1755
vn 0.4971 -0.7106 0.4978
vn 0.7106 -0.4971 0.4978
vn 0.4986 -0.4986 0.7091
vn 0.7943 -0.1867 0.5781
vn 0.7906 0.1755 0.5867
vn 0.5867 -0.1755 0.7906
vn 0.7091 0.4986 0.4986
vn 0.5781 0.1867 0.7943
vn 0.4978 0.4971 0.7106
vn 0.4960 0.7127 0.4960
vn 0.4182 0.2058 0.8847
vn 0.4182 -0.8847 -0.2058
vn 0.4106 -0.8927 0.1857
vn -0.4112 -0.8927 0.1841
vn 0.4112 -0.1841 0.8927
usemtl Material.010
s 1
f 3/1/1 2/2/2 1/3/3
f 3/1/1 4/4/4 2/5/2
f 5/6/5 6/7/6 4/8/4
f 5/6/5 8/9/7 7/10/8
f 11/11/9 8/9/7 9/12/10
f 8/13/7 10/14/11 12/15/12
f 10/16/11 13/17/13 12/15/12
f 14/18/14 15/19/15 13/20/13
f 17/21/16 15/19/15 14/22/14
f 16/23/17 17/24/16 18/25/18
f 11/11/9 18/26/18 17/27/16
f 21/28/19 18/26/18 19/29/20
f 21/28/19 22/30/21 20/31/22
f 25/32/23 22/30/21 23/33/24
f 25/32/23 26/34/25 24/35/26
f 28/36/27 24/37/26 26/38/25
f 28/36/27 29/39/28 30/40/29
f 28/36/27 31/41/30 32/42/31
f 33/43/32 31/41/30 34/44/33
f 33/43/32 35/45/34 36/46/35
f 37/47/36 35/45/34 38/48/37
f 37/47/36 39/49/38 40/50/39
f 40/51/39 41/52/40 42/53/41
f 43/54/42 41/52/40 44/55/43
f 43/54/42 45/56/44 46/57/45
f 47/58/46 45/56/44 48/59/47
f 47/58/46 49/60/48 50/61/49
f 51/62/50 49/60/48 52/63/51
f 53/64/52 52/65/51 54/66/53
f 53/64/52 55/67/54 56/68/55
f 57/69/56 55/67/54 58/70/57
f 57/69/56 59/71/58 60/72/59
f 61/73/60 59/71/58 62/74/61
f 63/75/62 62/76/61 64/77/63
f 63/75/62 65/78/64 66/79/65
f 67/80/66 65/78/64 68/81/67
f 67/80/66 69/82/68 70/83/69
f 71/84/70 69/82/68 72/85/71
f 71/84/70 73/86/72 27/87/73
f 72/88/71 74/89/74 73/90/72
f 74/91/74 29/39/28 73/90/72
f 74/91/74 76/92/75 75/93/76
f 79/94/77 76/92/75 77/95/78
f 79/94/77 80/96/79 78/97/80
f 84/98/81 82/99/82 81/100/83
f 79/94/77 84/101/81 81/100/83
f 83/102/84 85/103/85 82/104/82
f 89/105/86 87/106/87 86/107/88
f 85/108/85 86/109/88 87/110/87
f 86/111/88 90/112/89 89/113/86
f 89/105/86 90/112/89 92/114/90
f 88/115/91 93/116/92 87/110/87
f 88/115/91 95/117/93 94/118/94
f 94/119/94 97/120/95 98/121/96
f 100/122/97 95/117/93 96/123/98
f 98/124/96 101/125/99 93/126/92
f 94/119/94 98/127/96 93/126/92
f 104/128/100 101/125/99 102/129/101
f 104/128/100 105/130/102 106/131/103
f 107/132/104 105/130/102 108/133/105
f 110/134/106 101/125/99 103/135/107
f 110/134/106 103/136/107 80/137/79
f 112/138/108 109/139/109 110/140/106
f 102/141/101 113/142/110 105/143/102
f 101/144/99 109/139/109 93/126/92
f 111/145/111 93/116/92 109/146/109
f 111/145/111 85/103/85 87/110/87
f 83/102/84 91/147/112 86/107/88
f 116/148/113 91/147/112 114/149/114
f 112/138/108 85/103/85 111/150/111
f 84/98/81 114/151/114 83/152/84
f 117/153/115 84/101/81 118/154/116
f 119/155/117 80/96/79 104/156/100
f 103/157/107 104/158/100 80/137/79
f 112/138/108 80/96/79 81/100/83
f 84/98/81 77/159/78 118/154/116
f 78/160/80 120/161/118 76/162/75
f 119/155/117 121/163/119 120/164/118
f 64/165/63 116/166/113 65/167/64
f 123/168/120 61/169/60 63/170/62
f 116/148/113 62/76/61 115/171/121
f 61/73/60 122/172/122 60/72/59
f 115/173/121 62/76/61 59/174/58
f 125/175/123 56/176/55 57/177/56
f 125/175/123 126/178/124 124/179/125
f 126/180/124 127/181/126 124/179/125
f 128/182/127 129/183/128 127/184/126
f 130/185/129 131/186/130 129/187/128
f 132/188/131 133/189/132 131/190/130
f 135/191/133 133/189/132 132/192/131
f 137/193/134 134/194/135 135/195/133
f 139/196/136 136/197/137 137/198/134
f 138/199/138 139/200/136 140/201/139
f 142/202/140 134/194/135 136/203/137
f 143/204/141 129/183/128 144/205/142
f 58/206/57 92/207/90 90/208/89
f 143/204/141 56/176/55 127/184/126
f 124/209/125 127/181/126 56/68/55
f 54/210/53 96/211/98 55/212/54
f 92/213/90 55/67/54 96/123/98
f 100/122/97 54/214/53 52/63/51
f 143/204/141 50/215/49 51/216/50
f 100/122/97 49/60/48 99/217/143
f 144/218/142 47/219/46 50/61/49
f 48/220/47 99/221/143 49/222/48
f 144/218/142 131/186/130 46/57/45
f 47/58/46 144/223/142 46/57/45
f 48/220/47 97/120/95 99/217/143
f 95/224/93 99/221/143 97/225/95
f 44/226/43 97/120/95 45/227/44
f 133/228/132 141/229/144 42/53/41
f 43/54/42 133/189/132 42/53/41
f 108/230/105 113/142/110 41/231/40
f 44/226/43 41/52/40 113/232/110
f 141/233/144 40/234/39 42/53/41
f 39/235/38 108/236/105 41/231/40
f 142/202/140 40/234/39 141/237/144
f 107/132/104 39/49/38 38/48/37
f 107/132/104 38/238/37 35/239/34
f 138/199/138 36/240/35 136/203/137
f 142/202/140 136/197/137 36/46/35
f 35/241/34 121/163/119 106/131/103
f 107/132/104 35/45/34 106/131/103
f 138/199/138 32/242/31 33/243/32
f 34/244/33 120/161/118 121/245/119
f 75/246/76 30/247/29 29/248/28
f 27/249/73 29/39/28 26/38/25
f 25/32/23 1/250/3 70/83/69
f 71/84/70 25/251/23 70/83/69
f 137/193/134 15/19/15 16/252/17
f 128/182/127 13/17/13 130/253/129
f 11/11/9 14/254/14 10/255/11
f 123/168/120 6/7/6 122/256/122
f 3/1/1 19/257/20 5/258/5
f 9/259/10 5/260/5 19/29/20
f 2/261/2 123/262/120 66/79/65
f 67/80/66 2/2/2 66/79/65
f 7/263/8 125/264/123 6/265/6
f 3/1/1 23/266/24 21/267/19
f 11/11/9 9/268/10 19/29/20
f 126/180/124 8/9/7 12/15/12
f 128/182/127 126/178/124 12/15/12
f 20/269/22 140/270/139 139/271/136
f 139/196/136 16/272/17 18/25/18
f 20/269/22 139/200/136 18/25/18
f 132/188/131 13/17/13 135/195/133
f 15/273/15 135/274/133 13/20/13
f 2/261/2 70/275/69 1/3/3
f 123/168/120 63/276/62 66/79/65
f 125/175/123 60/277/59 6/265/6
f 122/278/122 6/7/6 60/72/59
f 25/32/23 71/279/70 27/87/73
f 53/64/52 143/280/141 51/216/50
f 24/281/26 32/242/31 22/282/21
f 140/283/139 22/30/21 32/42/31
f 37/47/36 142/284/140 36/46/35
f 133/228/132 46/285/45 131/190/130
f 68/286/67 118/287/116 69/288/68
f 65/289/64 114/151/114 68/81/67
f 117/153/115 68/290/67 114/149/114
f 59/291/58 90/112/89 115/171/121
f 91/292/112 115/293/121 90/208/89
f 72/88/71 118/287/116 77/95/78
f 74/91/74 72/294/71 77/95/78
f 82/295/82 112/296/108 81/100/83
f 89/105/86 96/211/98 88/297/91
f 75/246/76 120/161/118 30/40/29
f 31/298/30 30/247/29 120/164/118
f 119/155/117 106/299/103 121/245/119
f 113/300/110 98/127/96 97/225/95
f 3/1/1 5/260/5 4/8/4
f 5/6/5 7/301/8 6/265/6
f 5/6/5 9/268/10 8/302/7
f 11/11/9 10/14/11 8/302/7
f 10/16/11 14/254/14 13/20/13
f 17/21/16 16/272/17 15/303/15
f 11/11/9 19/257/20 18/25/18
f 21/28/19 20/304/22 18/25/18
f 21/28/19 23/266/24 22/282/21
f 25/32/23 24/37/26 22/282/21
f 25/32/23 27/305/73 26/38/25
f 28/36/27 26/34/25 29/248/28
f 28/36/27 30/247/29 31/306/30
f 33/43/32 32/242/31 31/306/30
f 33/43/32 34/307/33 35/239/34
f 37/47/36 36/240/35 35/239/34
f 37/47/36 38/238/37 39/308/38
f 40/51/39 39/49/38 41/231/40
f 43/54/42 42/309/41 41/231/40
f 43/54/42 44/310/43 45/227/44
f 47/58/46 46/285/45 45/227/44
f 47/58/46 48/311/47 49/222/48
f 51/62/50 50/215/49 49/222/48
f 53/64/52 51/312/50 52/63/51
f 53/64/52 54/214/53 55/212/54
f 57/69/56 56/176/55 55/212/54
f 57/69/56 58/313/57 59/174/58
f 61/73/60 60/277/59 59/174/58
f 63/75/62 61/169/60 62/74/61
f 63/75/62 64/314/63 65/167/64
f 67/80/66 66/315/65 65/167/64
f 67/80/66 68/290/67 69/288/68
f 71/84/70 70/275/69 69/288/68
f 71/84/70 72/294/71 73/90/72
f 74/91/74 75/316/76 29/248/28
f 74/91/74 77/159/78 76/162/75
f 79/94/77 78/317/80 76/162/75
f 79/94/77 81/318/83 80/137/79
f 84/98/81 83/319/84 82/104/82
f 83/102/84 86/109/88 85/320/85
f 89/105/86 88/321/91 87/110/87
f 86/111/88 91/147/112 90/208/89
f 88/115/91 94/322/94 93/126/92
f 88/115/91 96/211/98 95/323/93
f 94/119/94 95/117/93 97/225/95
f 100/122/97 99/221/143 95/323/93
f 98/124/96 102/324/101 101/325/99
f 104/128/100 103/136/107 101/325/99
f 104/128/100 102/324/101 105/143/102
f 107/132/104 106/299/103 105/143/102
f 110/134/106 109/139/109 101/325/99
f 112/138/108 111/326/111 109/146/109
f 102/141/101 98/127/96 113/232/110
f 111/145/111 87/106/87 93/126/92
f 83/102/84 114/151/114 91/327/112
f 116/148/113 115/293/121 91/327/112
f 112/138/108 82/99/82 85/320/85
f 84/98/81 117/328/115 114/149/114
f 119/155/117 78/317/80 80/137/79
f 112/138/108 110/329/106 80/137/79
f 84/98/81 79/330/77 77/95/78
f 78/160/80 119/331/117 120/164/118
f 123/168/120 122/172/122 61/332/60
f 116/148/113 64/314/63 62/74/61
f 125/175/123 124/333/125 56/68/55
f 126/180/124 128/334/127 127/184/126
f 128/182/127 130/335/129 129/187/128
f 130/185/129 132/336/131 131/190/130
f 135/191/133 134/194/135 133/337/132
f 137/193/134 136/197/137 134/338/135
f 139/196/136 138/339/138 136/203/137
f 142/202/140 141/229/144 134/338/135
f 143/204/141 127/181/126 129/187/128
f 58/206/57 55/67/54 92/114/90
f 143/204/141 53/340/52 56/68/55
f 54/210/53 100/341/97 96/123/98
f 143/204/141 144/223/142 50/61/49
f 100/122/97 52/65/51 49/222/48
f 144/218/142 129/183/128 131/190/130
f 48/220/47 45/56/44 97/225/95
f 44/226/43 113/142/110 97/225/95
f 133/228/132 134/194/135 141/237/144
f 108/230/105 105/130/102 113/232/110
f 142/202/140 37/342/36 40/50/39
f 107/132/104 108/236/105 39/308/38
f 138/199/138 33/343/32 36/46/35
f 35/241/34 34/307/33 121/245/119
f 138/199/138 140/270/139 32/42/31
f 34/244/33 31/41/30 120/164/118
f 27/249/73 73/86/72 29/248/28
f 25/32/23 23/266/24 1/3/3
f 137/193/134 135/274/133 15/303/15
f 128/182/127 12/344/12 13/20/13
f 11/11/9 17/24/16 14/22/14
f 123/168/120 4/4/4 6/265/6
f 3/1/1 21/345/19 19/29/20
f 2/261/2 4/4/4 123/346/120
f 7/263/8 126/178/124 125/347/123
f 3/1/1 1/250/3 23/33/24
f 126/180/124 7/301/8 8/302/7
f 20/269/22 22/30/21 140/201/139
f 139/196/136 137/348/134 16/252/17
f 132/188/131 130/335/129 13/20/13
f 2/261/2 67/349/66 70/83/69
f 125/175/123 57/350/56 60/72/59
f 24/281/26 28/351/27 32/42/31
f 133/228/132 43/352/42 46/57/45
f 68/286/67 117/328/115 118/154/116
f 65/289/64 116/166/113 114/149/114
f 59/291/58 58/313/57 90/208/89
f 72/88/71 69/82/68 118/154/116
f 89/105/86 92/207/90 96/123/98
f 75/246/76 76/92/75 120/164/118
f 119/155/117 104/158/100 106/131/103
